<svg width="119" height="60" viewBox="0 0 119 60" fill="none" xmlns="http://www.w3.org/2000/svg">
<path d="M26 30C26 34.9706 21.9706 39 17 39C12.0294 39 8 34.9706 8 30C8 25.0294 12.0294 21 17 21C21.9706 21 26 25.0294 26 30Z" fill="#14F1FF"/>
<path d="M66 30C66 34.9706 61.9706 39 57 39C52.0294 39 48 34.9706 48 30C48 25.0294 52.0294 21 57 21C61.9706 21 66 25.0294 66 30Z" fill="#14F1FF"/>
<g filter="url(#filter0_bi_1_876)">
<path d="M63.8853 44.5C63.407 44.7761 63.2417 45.3888 63.5336 45.8577C66.8672 51.2113 71.8091 55.3862 77.6639 57.7757C83.8278 60.2914 90.6533 60.6853 97.0657 58.8954C103.478 57.1055 109.113 53.2335 113.083 47.8891C117.053 42.5448 119.132 36.0317 118.994 29.3757C118.855 22.7196 116.506 16.2987 112.317 11.1242C108.129 5.94969 102.338 2.31551 95.8563 0.793984C89.375 -0.727537 82.5717 -0.0499472 76.5179 2.72004C70.7676 5.35114 66.0037 9.72806 62.8958 15.2158C62.6237 15.6964 62.8143 16.3017 63.3036 16.5577L87.3887 29.1571C88.0873 29.5226 88.108 30.515 87.4252 30.9092L63.8853 44.5Z" fill="url(#paint0_linear_1_876)" fill-opacity="0.2"/>
</g>
<defs>
<filter id="filter0_bi_1_876" x="42.7712" y="-20" width="96.2288" height="100" filterUnits="userSpaceOnUse" color-interpolation-filters="sRGB">
<feFlood flood-opacity="0" result="BackgroundImageFix"/>
<feGaussianBlur in="BackgroundImageFix" stdDeviation="10"/>
<feComposite in2="SourceAlpha" operator="in" result="effect1_backgroundBlur_1_876"/>
<feBlend mode="normal" in="SourceGraphic" in2="effect1_backgroundBlur_1_876" result="shape"/>
<feColorMatrix in="SourceAlpha" type="matrix" values="0 0 0 0 0 0 0 0 0 0 0 0 0 0 0 0 0 0 127 0" result="hardAlpha"/>
<feOffset dy="4"/>
<feGaussianBlur stdDeviation="9"/>
<feComposite in2="hardAlpha" operator="arithmetic" k2="-1" k3="1"/>
<feColorMatrix type="matrix" values="0 0 0 0 1 0 0 0 0 1 0 0 0 0 1 0 0 0 0.25 0"/>
<feBlend mode="normal" in2="shape" result="effect2_innerShadow_1_876"/>
</filter>
<linearGradient id="paint0_linear_1_876" x1="82.4419" y1="5.52457e-09" x2="82.9256" y2="63.1495" gradientUnits="userSpaceOnUse">
<stop stop-color="#4C226E"/>
<stop offset="1" stop-color="#14F1FF"/>
</linearGradient>
</defs>
</svg>
